# xmcd
#
# Track frame offsets: 
#        150
#        11488
#        22219
#        32580
#        61459
#        72893
#        84482
#        96904
#        107999
#        118107
#        130190
#        138296
#        154331
#        163399
#        173194
#        198901
#        208670
#        222600
#        235437
#        248182
#
# Disc length: 3558 seconds
#
# Revision: 0
# Processed by: cddbd v1.5.2PL0 Copyright (c) Steve Scherf et al.
# Submitted via: ExactAudioCopy v0.95b3
#
DISCID=2d0de414
DTITLE=Paul Revere and The Raiders  - Essential Ride '63-'67
DYEAR=1900
DGENRE=
TTITLE0=Louie, Louie
TTITLE1=Mojo Workout
TTITLE2=Over You
TTITLE3=Crisco Party - Walking The Dog
TTITLE4=Steppin' Out
TTITLE5=Just Like Me
TTITLE6=(I'm Not Your) Steppin' Stone
TTITLE7=Kicks
TTITLE8=Ballad Of A Useless Man
TTITLE9=Louie, Go Home
TTITLE10=Take A Look At Yourself
TTITLE11=Hungry
TTITLE12=(You're A) Bad Girl
TTITLE13=Louise
TTITLE14=Great Airplane Strike
TTITLE15=In My Community
TTITLE16=Good Thing
TTITLE17=Why Why Why (Is It So Hard)
TTITLE18=Ups And Downs
TTITLE19=Him Or Me (What's It Gonna Be)
EXTD=
EXTT0=
EXTT1=
EXTT2=
EXTT3=
EXTT4=
EXTT5=
EXTT6=
EXTT7=
EXTT8=
EXTT9=
EXTT10=
EXTT11=
EXTT12=
EXTT13=
EXTT14=
EXTT15=
EXTT16=
EXTT17=
EXTT18=
EXTT19=
PLAYORDER=
